<svg xmlns="http://www.w3.org/2000/svg" xmlns:xlink="http://www.w3.org/1999/xlink" width="500" zoomAndPan="magnify" viewBox="0 0 375 210.749996" height="281" preserveAspectRatio="xMidYMid meet" version="1.0"><defs><g/><clipPath id="72dc6857ba"><path d="M 66 57 L 103 57 L 103 116.113281 L 66 116.113281 Z M 66 57 " clip-rule="nonzero"/></clipPath><clipPath id="52135448fb"><path d="M 272 57 L 310 57 L 310 116.113281 L 272 116.113281 Z M 272 57 " clip-rule="nonzero"/></clipPath></defs><path fill="#8b1c15" d="M 101.3125 73.8125 L 114.613281 76.09375 L 111.191406 68.539062 C 111.191406 68.539062 88.632812 55.621094 83.121094 43.320312 C 83.121094 43.320312 81.410156 55.242188 86.066406 73.195312 C 87.777344 74.335938 89.199219 75.285156 90.199219 75.855469 C 89.25 71.863281 88.535156 67.449219 89.105469 64.550781 C 89.105469 64.550781 95.851562 92.195312 114.945312 112.761719 L 125.773438 112.761719 C 125.773438 112.808594 108.53125 99.699219 101.3125 73.8125 Z M 101.3125 73.8125 " fill-opacity="1" fill-rule="nonzero"/><g clip-path="url(#72dc6857ba)"><path fill="#8b1c15" d="M 81.742188 83.121094 L 93.046875 85.070312 L 90.152344 78.65625 C 90.152344 78.65625 71.007812 67.683594 66.355469 57.234375 C 66.355469 57.234375 64.214844 71.816406 71.910156 92.382812 L 74.570312 92.382812 C 74.570312 92.382812 70.296875 80.652344 71.390625 75.285156 C 71.390625 75.285156 77.089844 98.703125 93.332031 116.179688 L 102.5 116.179688 C 102.453125 116.230469 87.824219 105.066406 81.742188 83.121094 Z M 81.742188 83.121094 " fill-opacity="1" fill-rule="nonzero"/></g><path fill="#8b1c15" d="M 265.894531 62.933594 C 267.890625 61.652344 270.21875 60.039062 272.542969 58.28125 C 278.195312 41.464844 278.386719 27.214844 278.386719 27.214844 C 257.058594 47.5 220.820312 63.648438 210.417969 68.019531 C 208.898438 66.402344 207.375 64.835938 205.761719 63.269531 C 199.917969 57.664062 194.265625 51.867188 189.707031 46.882812 C 192.175781 43.605469 194.363281 40.800781 196.023438 38.855469 C 197.308594 37.332031 199.300781 36.667969 201.203125 37.191406 C 203.433594 37.761719 206.523438 37.761719 210.035156 35.386719 C 217.210938 30.445312 229.226562 12.917969 221.769531 6.222656 C 213.882812 0 198.683594 14.867188 195.074219 22.800781 C 193.316406 26.648438 193.839844 29.6875 194.789062 31.824219 C 195.644531 33.582031 195.3125 35.671875 194.078125 37.191406 C 192.460938 39.089844 190.230469 41.609375 187.570312 44.457031 C 185.289062 41.941406 183.34375 39.707031 181.917969 37.953125 C 181.300781 37.191406 181.015625 36.195312 181.207031 35.195312 L 182.058594 30.257812 C 182.296875 28.925781 182.011719 27.644531 181.253906 26.597656 C 179.78125 24.558594 176.976562 20.898438 173.511719 17.242188 C 168.238281 11.78125 158.597656 3.277344 158.597656 3.277344 L 158.027344 3.753906 L 174.652344 24.890625 C 174.839844 25.125 174.792969 25.554688 174.507812 25.792969 L 174.460938 25.839844 C 174.175781 26.078125 173.746094 26.078125 173.558594 25.792969 L 156.222656 5.226562 L 155.605469 5.746094 L 172.226562 26.980469 C 172.464844 27.265625 172.371094 27.644531 172.085938 27.882812 C 171.800781 28.117188 171.375 28.117188 171.183594 27.835938 L 153.75 7.265625 L 153.132812 7.789062 L 169.710938 28.925781 C 169.902344 29.164062 169.851562 29.589844 169.566406 29.828125 L 169.519531 29.875 C 169.234375 30.113281 168.808594 30.113281 168.617188 29.828125 L 151.328125 9.261719 L 150.757812 9.738281 C 150.757812 9.738281 157.125 20.898438 161.398438 27.167969 C 164.25 31.300781 167.289062 34.816406 168.949219 36.667969 C 169.804688 37.617188 171.039062 38.140625 172.371094 38.1875 L 177.359375 38.332031 C 178.355469 38.378906 179.257812 38.804688 179.875 39.566406 C 181.347656 41.371094 183.246094 43.839844 185.335938 46.738281 C 180.777344 51.488281 175.269531 56.949219 169.617188 62.222656 C 167.621094 64.121094 165.625 66.070312 163.773438 68.066406 C 155.414062 64.503906 118.699219 48.210938 96.609375 27.167969 C 96.609375 27.167969 96.800781 41.464844 102.453125 58.234375 C 104.828125 59.992188 107.109375 61.605469 109.101562 62.886719 C 107.011719 56.476562 105.824219 50.160156 106.15625 44.742188 C 106.15625 44.742188 121.355469 84.832031 144.867188 113.570312 L 155.507812 113.570312 C 155.507812 113.570312 137.648438 97.039062 123.542969 63.171875 L 149.855469 75.378906 L 161.589844 70.441406 C 153.515625 79.417969 147.480469 88.109375 146.246094 90.007812 C 146.105469 90.199219 146.152344 90.53125 146.390625 90.722656 L 151.472656 94.996094 C 151.707031 95.1875 151.992188 95.1875 152.183594 95.042969 C 154.320312 93 166.625 80.890625 175.503906 67.210938 C 179.542969 61.035156 183.722656 54.957031 187.523438 49.824219 C 191.324219 55.191406 195.691406 61.605469 199.777344 68.160156 C 208.46875 82.03125 220.628906 94.332031 222.71875 96.421875 C 222.910156 96.613281 223.195312 96.613281 223.429688 96.421875 L 228.609375 92.195312 C 228.847656 92.003906 228.894531 91.71875 228.75 91.480469 C 227.46875 89.535156 221.484375 80.511719 213.363281 71.296875 L 224.046875 75.09375 L 251.40625 63.21875 C 237.300781 97.085938 219.441406 113.617188 219.441406 113.617188 L 230.082031 113.617188 C 253.59375 84.878906 268.792969 44.789062 268.792969 44.789062 C 269.21875 50.253906 268.03125 56.523438 265.894531 62.933594 Z M 215.261719 7.550781 C 217.398438 7.03125 219.109375 7.265625 220.488281 8.3125 C 221.722656 9.453125 222.292969 11.113281 222.148438 13.300781 C 221.910156 16.765625 219.964844 20.945312 217.445312 24.746094 C 217.398438 24.792969 217.398438 24.792969 217.398438 24.839844 C 217.066406 25.222656 216.496094 25.316406 216.070312 24.9375 C 215.6875 24.652344 215.640625 24.128906 215.878906 23.703125 C 217.921875 20.328125 219.441406 16.765625 219.632812 13.726562 C 219.773438 11.496094 219.25 9.878906 217.96875 8.738281 C 217.066406 8.027344 215.972656 7.695312 214.738281 7.695312 C 214.882812 7.648438 215.023438 7.601562 215.261719 7.550781 Z M 215.261719 7.550781 " fill-opacity="1" fill-rule="nonzero"/><path fill="#8b1c15" d="M 284.847656 75.902344 C 285.84375 75.285156 287.269531 74.382812 288.980469 73.242188 C 293.632812 55.289062 291.925781 43.367188 291.925781 43.367188 C 286.460938 55.714844 263.851562 68.585938 263.851562 68.585938 L 260.433594 76.140625 L 273.730469 73.859375 C 266.511719 99.699219 249.269531 112.808594 249.269531 112.808594 L 260.101562 112.808594 C 279.195312 92.195312 285.9375 64.597656 285.9375 64.597656 C 286.507812 67.496094 285.796875 71.914062 284.847656 75.902344 Z M 284.847656 75.902344 " fill-opacity="1" fill-rule="nonzero"/><g clip-path="url(#52135448fb)"><path fill="#8b1c15" d="M 308.738281 57.28125 C 304.082031 67.734375 284.941406 78.703125 284.941406 78.703125 L 282.042969 85.117188 L 293.347656 83.167969 C 287.222656 105.113281 272.640625 116.277344 272.640625 116.277344 L 281.808594 116.277344 C 298.003906 98.796875 303.75 75.378906 303.75 75.378906 C 304.796875 80.792969 300.570312 92.480469 300.570312 92.480469 L 303.230469 92.480469 C 310.875 71.863281 308.738281 57.28125 308.738281 57.28125 Z M 308.738281 57.28125 " fill-opacity="1" fill-rule="nonzero"/></g><path fill="#8b1c15" d="M 175.410156 84.691406 L 175.410156 88.441406 L 186.714844 88.441406 L 186.714844 73.953125 L 186.144531 73.953125 C 180.253906 73.90625 175.410156 78.703125 175.410156 84.691406 Z M 175.410156 84.691406 " fill-opacity="1" fill-rule="nonzero"/><path fill="#8b1c15" d="M 189.28125 73.90625 L 188.710938 73.90625 L 188.710938 88.394531 L 200.015625 88.394531 L 200.015625 84.640625 C 200.015625 78.703125 195.21875 73.90625 189.28125 73.90625 Z M 189.28125 73.90625 " fill-opacity="1" fill-rule="nonzero"/><path fill="#8b1c15" d="M 175.410156 90.34375 L 186.714844 90.34375 L 186.714844 104.828125 L 175.410156 104.828125 Z M 175.410156 90.34375 " fill-opacity="1" fill-rule="nonzero"/><path fill="#8b1c15" d="M 188.710938 90.34375 L 200.015625 90.34375 L 200.015625 104.828125 L 188.710938 104.828125 Z M 188.710938 90.34375 " fill-opacity="1" fill-rule="nonzero"/><g fill="#8b1c15" fill-opacity="1"><g transform="translate(15.519399, 171.099023)"><g><path d="M 25.578125 -22.0625 C 28.046875 -21.707031 30.070312 -21.035156 31.65625 -20.046875 C 33.238281 -19.054688 34.398438 -17.859375 35.140625 -16.453125 C 35.878906 -15.046875 36.25 -13.523438 36.25 -11.890625 C 36.25 -10.097656 35.804688 -8.472656 34.921875 -7.015625 C 34.035156 -5.554688 32.835938 -4.300781 31.328125 -3.25 C 29.828125 -2.207031 28.140625 -1.40625 26.265625 -0.84375 C 24.390625 -0.28125 22.46875 0 20.5 0 L 8.78125 0 L 3.6875 0.578125 L 4.046875 -1.484375 L 7.90625 -1.875 L 7.90625 -38.828125 L 3.625 -40.296875 L 4.140625 -41.71875 L 7.90625 -41.71875 L 25.65625 -42.390625 C 27.382812 -41.785156 28.875 -41.050781 30.125 -40.1875 C 31.375 -39.320312 32.335938 -38.289062 33.015625 -37.09375 C 33.691406 -35.894531 34.03125 -34.46875 34.03125 -32.8125 C 34.03125 -31.832031 33.785156 -30.828125 33.296875 -29.796875 C 32.816406 -28.765625 32.164062 -27.765625 31.34375 -26.796875 C 30.53125 -25.835938 29.617188 -24.953125 28.609375 -24.140625 C 27.609375 -23.335938 26.597656 -22.644531 25.578125 -22.0625 Z M 26.953125 -37.953125 L 21.5 -40.265625 L 13.125 -39.671875 L 13.125 -23.359375 L 21.25 -22.3125 L 21.46875 -22.3125 C 22.164062 -22.53125 22.929688 -22.945312 23.765625 -23.5625 C 24.609375 -24.175781 25.40625 -24.910156 26.15625 -25.765625 C 26.914062 -26.617188 27.539062 -27.550781 28.03125 -28.5625 C 28.519531 -29.582031 28.765625 -30.617188 28.765625 -31.671875 C 28.765625 -32.992188 28.613281 -34.203125 28.3125 -35.296875 C 28.007812 -36.398438 27.554688 -37.285156 26.953125 -37.953125 Z M 19.375 -1.5625 C 23.46875 -1.75 26.429688 -2.6875 28.265625 -4.375 C 30.109375 -6.0625 31.03125 -8.316406 31.03125 -11.140625 C 31.03125 -13.054688 30.585938 -14.6875 29.703125 -16.03125 C 28.816406 -17.375 27.613281 -18.421875 26.09375 -19.171875 C 24.570312 -19.929688 22.835938 -20.363281 20.890625 -20.46875 L 13.125 -20.5625 L 13.125 -2.953125 Z M 19.375 -1.5625 "/></g></g></g><g fill="#8b1c15" fill-opacity="1"><g transform="translate(54.423971, 171.099023)"><g><path d="M 30.640625 -41.71875 L 35.6875 -41.71875 L 40.78125 -42.328125 L 40.421875 -40.265625 L 36.59375 -39.84375 L 36.59375 -8.234375 C 35.601562 -6.390625 34.328125 -4.800781 32.765625 -3.46875 C 31.210938 -2.144531 29.429688 -1.125 27.421875 -0.40625 C 25.421875 0.3125 23.253906 0.671875 20.921875 0.671875 C 19.835938 0.671875 18.632812 0.46875 17.3125 0.0625 C 16 -0.34375 14.691406 -0.945312 13.390625 -1.75 C 12.085938 -2.550781 10.894531 -3.539062 9.8125 -4.71875 C 8.726562 -5.894531 7.859375 -7.253906 7.203125 -8.796875 C 6.546875 -10.335938 6.21875 -12.054688 6.21875 -13.953125 L 6.21875 -38.828125 L 1.96875 -40.296875 L 2.46875 -41.71875 L 10.5625 -41.71875 L 15.671875 -42.328125 L 15.28125 -40.265625 L 11.4375 -39.84375 L 11.4375 -15.453125 C 11.4375 -11.953125 12.351562 -9.0625 14.1875 -6.78125 C 16.019531 -4.507812 18.898438 -2.84375 22.828125 -1.78125 C 24.691406 -2.082031 26.265625 -2.492188 27.546875 -3.015625 C 28.828125 -3.535156 29.898438 -4.125 30.765625 -4.78125 C 31.628906 -5.4375 32.34375 -6.125 32.90625 -6.84375 C 33.46875 -7.570312 33.960938 -8.289062 34.390625 -9 L 34.390625 -38.828125 L 30.09375 -40.296875 Z M 30.640625 -41.71875 "/></g></g></g><g fill="#8b1c15" fill-opacity="1"><g transform="translate(96.316559, 171.099023)"><g><path d="M 38.46875 -41.71875 L 43.59375 -42.328125 L 43.203125 -40.265625 L 39.359375 -39.84375 L 39.359375 0 L 35.203125 0.671875 L 10.078125 -35.265625 L 10.53125 -30.640625 L 10.53125 -2.890625 L 14.828125 -1.453125 L 14.28125 0 L 8.78125 0 L 3.6875 0.578125 L 4.046875 -1.484375 L 7.90625 -1.875 L 7.90625 -38.828125 L 3.625 -40.296875 L 4.140625 -41.71875 L 7.875 -41.71875 L 11.5 -42.234375 L 37.140625 -5.5 L 36.703125 -11.171875 L 36.703125 -38.828125 L 32.421875 -40.296875 L 32.96875 -41.71875 Z M 38.46875 -41.71875 "/></g></g></g><g fill="#8b1c15" fill-opacity="1"><g transform="translate(142.585534, 171.099023)"><g><path d="M 34.078125 -19.5 L 34.078125 -19.46875 L 36.734375 -19.46875 L 36.734375 -6.21875 L 23.84375 0.15625 L 16 0 C 12.894531 -0.96875 10.359375 -2.363281 8.390625 -4.1875 C 6.421875 -6.019531 4.960938 -8.238281 4.015625 -10.84375 C 3.066406 -13.457031 2.59375 -16.40625 2.59375 -19.6875 C 2.59375 -22.476562 3.03125 -25.046875 3.90625 -27.390625 C 4.78125 -29.742188 5.976562 -31.835938 7.5 -33.671875 C 9.019531 -35.515625 10.769531 -37.078125 12.75 -38.359375 C 14.738281 -39.648438 16.847656 -40.640625 19.078125 -41.328125 C 21.316406 -42.015625 23.570312 -42.367188 25.84375 -42.390625 L 35.953125 -36.203125 L 32.390625 -32.421875 L 21.5625 -39.875 C 20.332031 -39.5 19.070312 -38.988281 17.78125 -38.34375 C 16.488281 -37.695312 15.25 -36.882812 14.0625 -35.90625 C 12.875 -34.9375 11.8125 -33.738281 10.875 -32.3125 C 9.945312 -30.894531 9.203125 -29.222656 8.640625 -27.296875 C 8.085938 -25.378906 7.8125 -23.144531 7.8125 -20.59375 C 7.8125 -18.375 8.03125 -16.347656 8.46875 -14.515625 C 8.90625 -12.691406 9.65625 -10.960938 10.71875 -9.328125 C 11.78125 -7.703125 13.25 -6.070312 15.125 -4.4375 L 19.625 -2.46875 L 32.15625 -5.921875 L 32.15625 -16.546875 L 24.96875 -18.046875 L 25.171875 -19.5 Z M 34.078125 -19.5 "/></g></g></g><g fill="#8b1c15" fill-opacity="1"><g transform="translate(182.335201, 171.099023)"><g><path d="M 23 -42.390625 L 38.3125 -2.890625 L 42.140625 -1.453125 L 41.6875 0 L 34 0 L 28.6875 0.578125 L 29.078125 -1.484375 L 33.0625 -1.875 L 28.28125 -14.0625 L 11.46875 -14.0625 L 7.0625 -2.84375 L 12.203125 -1.421875 L 11.5625 0 L 4.890625 0 L 0.8125 0.578125 L 1.109375 -1.484375 L 4.171875 -1.875 L 18.296875 -37.140625 L 16.421875 -40.515625 Z M 19.59375 -34.78125 L 12.3125 -16.265625 L 27.4375 -16.265625 L 21.765625 -30.828125 Z M 19.59375 -34.78125 "/></g></g></g><g fill="#8b1c15" fill-opacity="1"><g transform="translate(225.284158, 171.099023)"><g/></g></g><g fill="#8b1c15" fill-opacity="1"><g transform="translate(242.427523, 171.099023)"><g><path d="M 23 -42.390625 L 38.3125 -2.890625 L 42.140625 -1.453125 L 41.6875 0 L 34 0 L 28.6875 0.578125 L 29.078125 -1.484375 L 33.0625 -1.875 L 28.28125 -14.0625 L 11.46875 -14.0625 L 7.0625 -2.84375 L 12.203125 -1.421875 L 11.5625 0 L 4.890625 0 L 0.8125 0.578125 L 1.109375 -1.484375 L 4.171875 -1.875 L 18.296875 -37.140625 L 16.421875 -40.515625 Z M 19.59375 -34.78125 L 12.3125 -16.265625 L 27.4375 -16.265625 L 21.765625 -30.828125 Z M 19.59375 -34.78125 "/></g></g></g><g fill="#8b1c15" fill-opacity="1"><g transform="translate(285.37648, 171.099023)"><g><path d="M 35.203125 -6.40625 L 23.8125 0.125 L 16 0 C 12.914062 -0.945312 10.382812 -2.34375 8.40625 -4.1875 C 6.425781 -6.039062 4.960938 -8.234375 4.015625 -10.765625 C 3.066406 -13.304688 2.59375 -16.035156 2.59375 -18.953125 C 2.59375 -21.890625 3.015625 -24.582031 3.859375 -27.03125 C 4.703125 -29.476562 5.867188 -31.644531 7.359375 -33.53125 C 8.847656 -35.425781 10.570312 -37.023438 12.53125 -38.328125 C 14.5 -39.640625 16.613281 -40.640625 18.875 -41.328125 C 21.144531 -42.015625 23.46875 -42.367188 25.84375 -42.390625 L 34.953125 -36.828125 L 31.390625 -33.09375 L 21.578125 -39.90625 C 20.359375 -39.539062 19.101562 -39.039062 17.8125 -38.40625 C 16.519531 -37.78125 15.28125 -36.972656 14.09375 -35.984375 C 12.90625 -34.992188 11.84375 -33.800781 10.90625 -32.40625 C 9.976562 -31.007812 9.234375 -29.359375 8.671875 -27.453125 C 8.117188 -25.554688 7.84375 -23.367188 7.84375 -20.890625 C 7.84375 -18.835938 8.050781 -16.832031 8.46875 -14.875 C 8.882812 -12.925781 9.617188 -11.070312 10.671875 -9.3125 C 11.722656 -7.550781 13.207031 -5.9375 15.125 -4.46875 L 19.6875 -2.5 L 34.46875 -7.609375 Z M 35.203125 -6.40625 "/></g></g></g><g fill="#8b1c15" fill-opacity="1"><g transform="translate(322.470134, 171.099023)"><g><path d="M 35.203125 -6.40625 L 23.8125 0.125 L 16 0 C 12.914062 -0.945312 10.382812 -2.34375 8.40625 -4.1875 C 6.425781 -6.039062 4.960938 -8.234375 4.015625 -10.765625 C 3.066406 -13.304688 2.59375 -16.035156 2.59375 -18.953125 C 2.59375 -21.890625 3.015625 -24.582031 3.859375 -27.03125 C 4.703125 -29.476562 5.867188 -31.644531 7.359375 -33.53125 C 8.847656 -35.425781 10.570312 -37.023438 12.53125 -38.328125 C 14.5 -39.640625 16.613281 -40.640625 18.875 -41.328125 C 21.144531 -42.015625 23.46875 -42.367188 25.84375 -42.390625 L 34.953125 -36.828125 L 31.390625 -33.09375 L 21.578125 -39.90625 C 20.359375 -39.539062 19.101562 -39.039062 17.8125 -38.40625 C 16.519531 -37.78125 15.28125 -36.972656 14.09375 -35.984375 C 12.90625 -34.992188 11.84375 -33.800781 10.90625 -32.40625 C 9.976562 -31.007812 9.234375 -29.359375 8.671875 -27.453125 C 8.117188 -25.554688 7.84375 -23.367188 7.84375 -20.890625 C 7.84375 -18.835938 8.050781 -16.832031 8.46875 -14.875 C 8.882812 -12.925781 9.617188 -11.070312 10.671875 -9.3125 C 11.722656 -7.550781 13.207031 -5.9375 15.125 -4.46875 L 19.6875 -2.5 L 34.46875 -7.609375 Z M 35.203125 -6.40625 "/></g></g></g><g fill="#46221a" fill-opacity="1"><g transform="translate(86.401295, 203.224361)"><g><path d="M 11 0.34375 L 6.46875 -5.765625 L 4.328125 -5.828125 L 4.328125 -0.953125 L 5.734375 -0.484375 L 5.5625 0 L 2.890625 0 L 1.21875 0.1875 L 1.328125 -0.484375 L 2.609375 -0.625 L 2.609375 -12.796875 L 1.1875 -13.296875 L 1.359375 -13.765625 L 2.609375 -13.765625 L 8.140625 -13.984375 C 8.753906 -13.765625 9.289062 -13.488281 9.75 -13.15625 C 10.21875 -12.832031 10.578125 -12.4375 10.828125 -11.96875 C 11.085938 -11.5 11.21875 -10.9375 11.21875 -10.28125 C 11.21875 -9.738281 11.113281 -9.222656 10.90625 -8.734375 C 10.707031 -8.253906 10.429688 -7.816406 10.078125 -7.421875 C 9.734375 -7.023438 9.34375 -6.691406 8.90625 -6.421875 C 8.476562 -6.160156 8.03125 -5.972656 7.5625 -5.859375 L 7.96875 -5.6875 L 12.421875 -0.703125 L 12.5625 -0.390625 Z M 8.6875 -12.53125 L 6.796875 -13.3125 L 4.328125 -13.078125 L 4.328125 -6.875 L 7.109375 -6.328125 C 7.578125 -6.453125 7.988281 -6.679688 8.34375 -7.015625 C 8.707031 -7.359375 8.992188 -7.757812 9.203125 -8.21875 C 9.421875 -8.6875 9.53125 -9.179688 9.53125 -9.703125 C 9.53125 -10.347656 9.460938 -10.898438 9.328125 -11.359375 C 9.191406 -11.828125 8.976562 -12.21875 8.6875 -12.53125 Z M 8.6875 -12.53125 "/></g></g></g><g fill="#46221a" fill-opacity="1"><g transform="translate(99.085094, 203.224361)"><g><path d="M 10 -0.71875 L 11.21875 -0.84375 L 11.34375 -0.28125 L 8.90625 0.21875 C 8.738281 0.113281 8.597656 -0.0078125 8.484375 -0.15625 C 8.378906 -0.300781 8.289062 -0.457031 8.21875 -0.625 L 8.21875 -1.65625 L 4.671875 0.21875 C 4.472656 0.207031 4.238281 0.140625 3.96875 0.015625 C 3.707031 -0.0976562 3.445312 -0.242188 3.1875 -0.421875 C 2.9375 -0.609375 2.722656 -0.804688 2.546875 -1.015625 C 2.367188 -1.222656 2.265625 -1.414062 2.234375 -1.59375 L 2.234375 -8.546875 L 0.921875 -8.296875 L 0.8125 -8.703125 L 3.265625 -9.75 L 3.78125 -9.484375 L 3.78125 -2.46875 C 3.78125 -2.28125 3.785156 -2.128906 3.796875 -2.015625 C 3.816406 -1.910156 3.847656 -1.800781 3.890625 -1.6875 L 5.234375 -0.78125 L 8.21875 -2.203125 L 8.21875 -8.546875 L 6.90625 -8.296875 L 6.796875 -8.703125 L 9.25 -9.75 L 9.765625 -9.484375 L 9.765625 -1.71875 C 9.765625 -1.625 9.769531 -1.503906 9.78125 -1.359375 C 9.789062 -1.210938 9.8125 -1.078125 9.84375 -0.953125 C 9.882812 -0.835938 9.9375 -0.757812 10 -0.71875 Z M 10 -0.71875 "/></g></g></g><g fill="#46221a" fill-opacity="1"><g transform="translate(111.351074, 203.224361)"><g><path d="M 14.71875 -7.9375 L 14.71875 -0.953125 L 16.046875 -0.484375 L 15.890625 0 L 13.46875 0 L 11.984375 0.15625 L 12.09375 -0.5 L 13.171875 -0.625 L 13.171875 -7.0625 C 13.171875 -7.25 13.160156 -7.394531 13.140625 -7.5 C 13.117188 -7.613281 13.09375 -7.722656 13.0625 -7.828125 L 11.734375 -8.734375 L 9.3125 -7.59375 L 9.3125 -0.875 L 10.578125 -0.484375 L 10.421875 0 L 8.0625 0 L 6.578125 0.15625 L 6.6875 -0.5 L 7.765625 -0.625 L 7.765625 -7.0625 C 7.765625 -7.25 7.753906 -7.394531 7.734375 -7.5 C 7.710938 -7.613281 7.6875 -7.722656 7.65625 -7.828125 L 6.328125 -8.734375 L 3.90625 -7.59375 L 3.90625 -0.859375 L 5.171875 -0.46875 L 5.015625 0 L 2.640625 0 L 1.03125 0.1875 L 1.140625 -0.484375 L 2.359375 -0.625 L 2.359375 -8.546875 L 1.0625 -8.296875 L 0.9375 -8.6875 L 3.390625 -9.75 L 3.90625 -9.484375 L 3.90625 -8.15625 L 6.875 -9.75 C 7.050781 -9.738281 7.257812 -9.679688 7.5 -9.578125 C 7.738281 -9.472656 7.976562 -9.34375 8.21875 -9.1875 C 8.457031 -9.03125 8.671875 -8.859375 8.859375 -8.671875 C 9.046875 -8.484375 9.179688 -8.300781 9.265625 -8.125 L 12.296875 -9.75 C 12.492188 -9.738281 12.722656 -9.671875 12.984375 -9.546875 C 13.242188 -9.429688 13.5 -9.28125 13.75 -9.09375 C 14.007812 -8.914062 14.226562 -8.722656 14.40625 -8.515625 C 14.582031 -8.316406 14.6875 -8.125 14.71875 -7.9375 Z M 14.71875 -7.9375 "/></g></g></g><g fill="#46221a" fill-opacity="1"><g transform="translate(128.17327, 203.224361)"><g><path d="M 8.453125 -0.71875 L 9.671875 -0.84375 L 9.796875 -0.28125 L 7.359375 0.21875 C 7.191406 0.113281 7.050781 -0.0078125 6.9375 -0.15625 C 6.820312 -0.300781 6.726562 -0.457031 6.65625 -0.625 L 6.65625 -1.65625 L 2.890625 0.21875 C 2.304688 -0.0507812 1.867188 -0.40625 1.578125 -0.84375 C 1.296875 -1.28125 1.15625 -1.769531 1.15625 -2.3125 C 1.15625 -2.6875 1.253906 -3.117188 1.453125 -3.609375 L 6.65625 -5.09375 L 6.65625 -7.453125 C 6.582031 -7.617188 6.4375 -7.785156 6.21875 -7.953125 C 6.007812 -8.128906 5.769531 -8.285156 5.5 -8.421875 C 5.238281 -8.566406 4.972656 -8.671875 4.703125 -8.734375 L 3.0625 -8.28125 C 3.09375 -7.957031 3.132812 -7.617188 3.1875 -7.265625 C 3.25 -6.921875 3.316406 -6.601562 3.390625 -6.3125 L 2.296875 -5.953125 L 1.515625 -8.265625 L 1.53125 -8.265625 L 1.515625 -8.28125 L 5.5 -9.75 C 5.738281 -9.6875 5.988281 -9.597656 6.25 -9.484375 C 6.519531 -9.378906 6.78125 -9.25 7.03125 -9.09375 C 7.289062 -8.9375 7.523438 -8.75 7.734375 -8.53125 C 7.941406 -8.3125 8.101562 -8.0625 8.21875 -7.78125 L 8.21875 -1.71875 C 8.21875 -1.625 8.222656 -1.503906 8.234375 -1.359375 C 8.242188 -1.210938 8.265625 -1.078125 8.296875 -0.953125 C 8.335938 -0.835938 8.390625 -0.757812 8.453125 -0.71875 Z M 3.59375 -0.8125 L 6.65625 -2.140625 L 6.65625 -4.671875 L 2.9375 -3.375 C 2.851562 -3.289062 2.78125 -3.171875 2.71875 -3.015625 C 2.664062 -2.859375 2.640625 -2.695312 2.640625 -2.53125 C 2.640625 -2.125 2.695312 -1.804688 2.8125 -1.578125 C 2.925781 -1.347656 3.054688 -1.175781 3.203125 -1.0625 C 3.359375 -0.957031 3.488281 -0.875 3.59375 -0.8125 Z M 3.59375 -0.8125 "/></g></g></g><g fill="#46221a" fill-opacity="1"><g transform="translate(138.509324, 203.224361)"><g><path d="M 9.890625 -7.9375 L 9.890625 -0.953125 L 11.21875 -0.484375 L 11.046875 0 L 8.625 0 L 7.15625 0.15625 L 7.265625 -0.5 L 8.34375 -0.625 L 8.34375 -7.0625 C 8.34375 -7.25 8.332031 -7.394531 8.3125 -7.5 C 8.289062 -7.613281 8.265625 -7.722656 8.234375 -7.828125 L 6.890625 -8.734375 L 3.90625 -7.3125 L 3.90625 -0.875 L 5.171875 -0.484375 L 5.015625 0 L 2.640625 0 L 1.03125 0.1875 L 1.140625 -0.484375 L 2.359375 -0.625 L 2.359375 -13.53125 L 1.0625 -13.265625 L 0.9375 -13.6875 L 3.390625 -14.71875 L 3.90625 -14.46875 L 3.90625 -7.875 L 7.453125 -9.75 C 7.648438 -9.738281 7.878906 -9.671875 8.140625 -9.546875 C 8.410156 -9.429688 8.671875 -9.28125 8.921875 -9.09375 C 9.179688 -8.914062 9.398438 -8.722656 9.578125 -8.515625 C 9.753906 -8.316406 9.859375 -8.125 9.890625 -7.9375 Z M 9.890625 -7.9375 "/></g></g></g><g fill="#46221a" fill-opacity="1"><g transform="translate(150.506698, 203.224361)"><g/></g></g><g fill="#46221a" fill-opacity="1"><g transform="translate(156.157203, 203.224361)"><g><path d="M 15.734375 -13.140625 L 15.734375 -0.953125 L 17.140625 -0.484375 L 16.96875 0 L 14.296875 0 L 12.609375 0.1875 L 12.75 -0.484375 L 14.015625 -0.625 L 14.015625 -10.109375 L 14.203125 -11.65625 L 9.390625 -0.1875 L 8.1875 0.09375 L 3.203125 -11.671875 L 3.328125 -10.125 L 3.328125 -0.953125 L 4.734375 -0.484375 L 4.5625 0 L 2.890625 0 L 1.21875 0.1875 L 1.328125 -0.484375 L 2.609375 -0.625 L 2.609375 -12.796875 L 1.1875 -13.296875 L 1.359375 -13.765625 L 2.609375 -13.765625 L 4.125 -13.921875 L 9.21875 -1.640625 L 14.28125 -13.765625 L 15.4375 -13.765625 L 17.109375 -13.953125 L 17 -13.28125 Z M 15.734375 -13.140625 "/></g></g></g><g fill="#46221a" fill-opacity="1"><g transform="translate(174.47161, 203.224361)"><g><path d="M 8.453125 -0.71875 L 9.671875 -0.84375 L 9.796875 -0.28125 L 7.359375 0.21875 C 7.191406 0.113281 7.050781 -0.0078125 6.9375 -0.15625 C 6.820312 -0.300781 6.726562 -0.457031 6.65625 -0.625 L 6.65625 -1.65625 L 2.890625 0.21875 C 2.304688 -0.0507812 1.867188 -0.40625 1.578125 -0.84375 C 1.296875 -1.28125 1.15625 -1.769531 1.15625 -2.3125 C 1.15625 -2.6875 1.253906 -3.117188 1.453125 -3.609375 L 6.65625 -5.09375 L 6.65625 -7.453125 C 6.582031 -7.617188 6.4375 -7.785156 6.21875 -7.953125 C 6.007812 -8.128906 5.769531 -8.285156 5.5 -8.421875 C 5.238281 -8.566406 4.972656 -8.671875 4.703125 -8.734375 L 3.0625 -8.28125 C 3.09375 -7.957031 3.132812 -7.617188 3.1875 -7.265625 C 3.25 -6.921875 3.316406 -6.601562 3.390625 -6.3125 L 2.296875 -5.953125 L 1.515625 -8.265625 L 1.53125 -8.265625 L 1.515625 -8.28125 L 5.5 -9.75 C 5.738281 -9.6875 5.988281 -9.597656 6.25 -9.484375 C 6.519531 -9.378906 6.78125 -9.25 7.03125 -9.09375 C 7.289062 -8.9375 7.523438 -8.75 7.734375 -8.53125 C 7.941406 -8.3125 8.101562 -8.0625 8.21875 -7.78125 L 8.21875 -1.71875 C 8.21875 -1.625 8.222656 -1.503906 8.234375 -1.359375 C 8.242188 -1.210938 8.265625 -1.078125 8.296875 -0.953125 C 8.335938 -0.835938 8.390625 -0.757812 8.453125 -0.71875 Z M 3.59375 -0.8125 L 6.65625 -2.140625 L 6.65625 -4.671875 L 2.9375 -3.375 C 2.851562 -3.289062 2.78125 -3.171875 2.71875 -3.015625 C 2.664062 -2.859375 2.640625 -2.695312 2.640625 -2.53125 C 2.640625 -2.125 2.695312 -1.804688 2.8125 -1.578125 C 2.925781 -1.347656 3.054688 -1.175781 3.203125 -1.0625 C 3.359375 -0.957031 3.488281 -0.875 3.59375 -0.8125 Z M 3.59375 -0.8125 "/></g></g></g><g fill="#46221a" fill-opacity="1"><g transform="translate(184.807664, 203.224361)"><g><path d="M 6.171875 -4.4375 L 6.578125 -4.265625 L 10.21875 -0.25 L 10.21875 -0.03125 L 8.765625 0.5625 L 5.453125 -4.125 L 3.90625 -4.125 L 3.90625 -0.953125 L 5.234375 -0.484375 L 5.0625 0 L 2.640625 0 L 1.03125 0.1875 L 1.140625 -0.484375 L 2.359375 -0.625 L 2.359375 -13.515625 L 1.0625 -13.265625 L 0.9375 -13.65625 L 3.390625 -14.71875 L 3.90625 -14.453125 L 3.90625 -4.8125 L 5.46875 -4.640625 L 5.5 -4.625 C 5.957031 -4.945312 6.375 -5.285156 6.75 -5.640625 C 7.132812 -6.003906 7.441406 -6.382812 7.671875 -6.78125 C 7.910156 -7.175781 8.03125 -7.582031 8.03125 -8 L 6.296875 -9.09375 L 7.390625 -9.953125 L 9.09375 -8.625 C 9.09375 -8.007812 8.96875 -7.453125 8.71875 -6.953125 C 8.476562 -6.453125 8.132812 -5.992188 7.6875 -5.578125 C 7.25 -5.171875 6.742188 -4.789062 6.171875 -4.4375 Z M 6.171875 -4.4375 "/></g></g></g><g fill="#46221a" fill-opacity="1"><g transform="translate(195.233243, 203.224361)"><g><path d="M 8.453125 -0.71875 L 9.671875 -0.84375 L 9.796875 -0.28125 L 7.359375 0.21875 C 7.191406 0.113281 7.050781 -0.0078125 6.9375 -0.15625 C 6.820312 -0.300781 6.726562 -0.457031 6.65625 -0.625 L 6.65625 -1.65625 L 2.890625 0.21875 C 2.304688 -0.0507812 1.867188 -0.40625 1.578125 -0.84375 C 1.296875 -1.28125 1.15625 -1.769531 1.15625 -2.3125 C 1.15625 -2.6875 1.253906 -3.117188 1.453125 -3.609375 L 6.65625 -5.09375 L 6.65625 -7.453125 C 6.582031 -7.617188 6.4375 -7.785156 6.21875 -7.953125 C 6.007812 -8.128906 5.769531 -8.285156 5.5 -8.421875 C 5.238281 -8.566406 4.972656 -8.671875 4.703125 -8.734375 L 3.0625 -8.28125 C 3.09375 -7.957031 3.132812 -7.617188 3.1875 -7.265625 C 3.25 -6.921875 3.316406 -6.601562 3.390625 -6.3125 L 2.296875 -5.953125 L 1.515625 -8.265625 L 1.53125 -8.265625 L 1.515625 -8.28125 L 5.5 -9.75 C 5.738281 -9.6875 5.988281 -9.597656 6.25 -9.484375 C 6.519531 -9.378906 6.78125 -9.25 7.03125 -9.09375 C 7.289062 -8.9375 7.523438 -8.75 7.734375 -8.53125 C 7.941406 -8.3125 8.101562 -8.0625 8.21875 -7.78125 L 8.21875 -1.71875 C 8.21875 -1.625 8.222656 -1.503906 8.234375 -1.359375 C 8.242188 -1.210938 8.265625 -1.078125 8.296875 -0.953125 C 8.335938 -0.835938 8.390625 -0.757812 8.453125 -0.71875 Z M 3.59375 -0.8125 L 6.65625 -2.140625 L 6.65625 -4.671875 L 2.9375 -3.375 C 2.851562 -3.289062 2.78125 -3.171875 2.71875 -3.015625 C 2.664062 -2.859375 2.640625 -2.695312 2.640625 -2.53125 C 2.640625 -2.125 2.695312 -1.804688 2.8125 -1.578125 C 2.925781 -1.347656 3.054688 -1.175781 3.203125 -1.0625 C 3.359375 -0.957031 3.488281 -0.875 3.59375 -0.8125 Z M 3.59375 -0.8125 "/></g></g></g><g fill="#46221a" fill-opacity="1"><g transform="translate(205.569297, 203.224361)"><g><path d="M 9.890625 -7.9375 L 9.890625 -0.953125 L 11.21875 -0.484375 L 11.046875 0 L 8.625 0 L 7.15625 0.15625 L 7.265625 -0.5 L 8.34375 -0.625 L 8.34375 -7.0625 C 8.34375 -7.25 8.332031 -7.394531 8.3125 -7.5 C 8.289062 -7.613281 8.265625 -7.722656 8.234375 -7.828125 L 6.890625 -8.734375 L 3.90625 -7.3125 L 3.90625 -0.875 L 5.171875 -0.46875 L 5.015625 0 L 2.640625 0 L 1.03125 0.1875 L 1.140625 -0.484375 L 2.359375 -0.625 L 2.359375 -8.546875 L 1.0625 -8.296875 L 0.9375 -8.6875 L 3.390625 -9.75 L 3.90625 -9.484375 L 3.90625 -7.875 L 7.453125 -9.75 C 7.648438 -9.738281 7.878906 -9.671875 8.140625 -9.546875 C 8.410156 -9.429688 8.671875 -9.28125 8.921875 -9.09375 C 9.179688 -8.914062 9.398438 -8.722656 9.578125 -8.515625 C 9.753906 -8.316406 9.859375 -8.125 9.890625 -7.9375 Z M 9.890625 -7.9375 "/></g></g></g><g fill="#46221a" fill-opacity="1"><g transform="translate(217.566671, 203.224361)"><g/></g></g><g fill="#46221a" fill-opacity="1"><g transform="translate(223.217176, 203.224361)"><g><path d="M 2.609375 -13.765625 L 8.328125 -13.984375 C 9.222656 -13.648438 9.925781 -13.160156 10.4375 -12.515625 C 10.957031 -11.867188 11.21875 -11.039062 11.21875 -10.03125 C 11.21875 -9.4375 11.113281 -8.898438 10.90625 -8.421875 C 10.707031 -7.953125 10.4375 -7.535156 10.09375 -7.171875 C 9.757812 -6.804688 9.394531 -6.503906 9 -6.265625 C 8.613281 -6.023438 8.234375 -5.84375 7.859375 -5.71875 C 7.484375 -5.59375 7.15625 -5.523438 6.875 -5.515625 L 4.328125 -5.515625 L 4.328125 -0.953125 L 6.5 -0.484375 L 6.234375 0 L 2.890625 0 L 1.21875 0.1875 L 1.328125 -0.484375 L 2.609375 -0.625 L 2.609375 -12.796875 L 1.1875 -13.296875 L 1.359375 -13.765625 Z M 4.328125 -6.609375 L 7.03125 -6.078125 C 7.414062 -6.191406 7.765625 -6.375 8.078125 -6.625 C 8.390625 -6.882812 8.648438 -7.179688 8.859375 -7.515625 C 9.078125 -7.859375 9.242188 -8.207031 9.359375 -8.5625 C 9.472656 -8.914062 9.53125 -9.242188 9.53125 -9.546875 C 9.53125 -10.265625 9.460938 -10.867188 9.328125 -11.359375 C 9.191406 -11.847656 8.976562 -12.242188 8.6875 -12.546875 L 6.703125 -13.3125 L 4.328125 -13.09375 Z M 4.328125 -6.609375 "/></g></g></g><g fill="#46221a" fill-opacity="1"><g transform="translate(234.776835, 203.224361)"><g><path d="M 8.453125 -0.71875 L 9.671875 -0.84375 L 9.796875 -0.28125 L 7.359375 0.21875 C 7.191406 0.113281 7.050781 -0.0078125 6.9375 -0.15625 C 6.820312 -0.300781 6.726562 -0.457031 6.65625 -0.625 L 6.65625 -1.65625 L 2.890625 0.21875 C 2.304688 -0.0507812 1.867188 -0.40625 1.578125 -0.84375 C 1.296875 -1.28125 1.15625 -1.769531 1.15625 -2.3125 C 1.15625 -2.6875 1.253906 -3.117188 1.453125 -3.609375 L 6.65625 -5.09375 L 6.65625 -7.453125 C 6.582031 -7.617188 6.4375 -7.785156 6.21875 -7.953125 C 6.007812 -8.128906 5.769531 -8.285156 5.5 -8.421875 C 5.238281 -8.566406 4.972656 -8.671875 4.703125 -8.734375 L 3.0625 -8.28125 C 3.09375 -7.957031 3.132812 -7.617188 3.1875 -7.265625 C 3.25 -6.921875 3.316406 -6.601562 3.390625 -6.3125 L 2.296875 -5.953125 L 1.515625 -8.265625 L 1.53125 -8.265625 L 1.515625 -8.28125 L 5.5 -9.75 C 5.738281 -9.6875 5.988281 -9.597656 6.25 -9.484375 C 6.519531 -9.378906 6.78125 -9.25 7.03125 -9.09375 C 7.289062 -8.9375 7.523438 -8.75 7.734375 -8.53125 C 7.941406 -8.3125 8.101562 -8.0625 8.21875 -7.78125 L 8.21875 -1.71875 C 8.21875 -1.625 8.222656 -1.503906 8.234375 -1.359375 C 8.242188 -1.210938 8.265625 -1.078125 8.296875 -0.953125 C 8.335938 -0.835938 8.390625 -0.757812 8.453125 -0.71875 Z M 3.59375 -0.8125 L 6.65625 -2.140625 L 6.65625 -4.671875 L 2.9375 -3.375 C 2.851562 -3.289062 2.78125 -3.171875 2.71875 -3.015625 C 2.664062 -2.859375 2.640625 -2.695312 2.640625 -2.53125 C 2.640625 -2.125 2.695312 -1.804688 2.8125 -1.578125 C 2.925781 -1.347656 3.054688 -1.175781 3.203125 -1.0625 C 3.359375 -0.957031 3.488281 -0.875 3.59375 -0.8125 Z M 3.59375 -0.8125 "/></g></g></g><g fill="#46221a" fill-opacity="1"><g transform="translate(245.112889, 203.224361)"><g><path d="M 9.046875 -0.71875 L 10.4375 -0.890625 L 10.359375 -0.28125 L 7.953125 0.21875 C 7.785156 0.113281 7.644531 -0.0078125 7.53125 -0.15625 C 7.425781 -0.300781 7.335938 -0.457031 7.265625 -0.625 L 7.265625 -1.765625 L 3.59375 0.21875 C 3.050781 0.0507812 2.566406 -0.164062 2.140625 -0.4375 C 1.722656 -0.71875 1.367188 -1.023438 1.078125 -1.359375 C 0.972656 -1.703125 0.882812 -2.085938 0.8125 -2.515625 C 0.738281 -2.941406 0.703125 -3.457031 0.703125 -4.0625 C 0.703125 -4.90625 0.835938 -5.664062 1.109375 -6.34375 C 1.378906 -7.03125 1.757812 -7.617188 2.25 -8.109375 C 2.75 -8.609375 3.332031 -9 4 -9.28125 C 4.664062 -9.5625 5.390625 -9.71875 6.171875 -9.75 C 6.304688 -9.6875 6.46875 -9.609375 6.65625 -9.515625 C 6.851562 -9.429688 7.054688 -9.328125 7.265625 -9.203125 L 7.265625 -13.515625 L 5.953125 -13.265625 L 5.828125 -13.671875 L 8.296875 -14.71875 L 8.796875 -14.453125 L 8.796875 -2.046875 C 8.796875 -1.734375 8.8125 -1.445312 8.84375 -1.1875 C 8.875 -0.9375 8.941406 -0.78125 9.046875 -0.71875 Z M 2.53125 -1.859375 L 4.140625 -0.78125 L 7.265625 -2.28125 L 7.265625 -7.8125 L 7.234375 -7.8125 L 5.234375 -9.0625 C 4.835938 -8.914062 4.457031 -8.734375 4.09375 -8.515625 C 3.738281 -8.296875 3.421875 -8.015625 3.140625 -7.671875 C 2.867188 -7.328125 2.65625 -6.890625 2.5 -6.359375 C 2.34375 -5.835938 2.265625 -5.195312 2.265625 -4.4375 C 2.265625 -3.894531 2.289062 -3.414062 2.34375 -3 C 2.394531 -2.582031 2.457031 -2.203125 2.53125 -1.859375 Z M 2.53125 -1.859375 "/></g></g></g><g fill="#46221a" fill-opacity="1"><g transform="translate(256.095559, 203.224361)"><g><path d="M 8.453125 -0.71875 L 9.671875 -0.84375 L 9.796875 -0.28125 L 7.359375 0.21875 C 7.191406 0.113281 7.050781 -0.0078125 6.9375 -0.15625 C 6.820312 -0.300781 6.726562 -0.457031 6.65625 -0.625 L 6.65625 -1.65625 L 2.890625 0.21875 C 2.304688 -0.0507812 1.867188 -0.40625 1.578125 -0.84375 C 1.296875 -1.28125 1.15625 -1.769531 1.15625 -2.3125 C 1.15625 -2.6875 1.253906 -3.117188 1.453125 -3.609375 L 6.65625 -5.09375 L 6.65625 -7.453125 C 6.582031 -7.617188 6.4375 -7.785156 6.21875 -7.953125 C 6.007812 -8.128906 5.769531 -8.285156 5.5 -8.421875 C 5.238281 -8.566406 4.972656 -8.671875 4.703125 -8.734375 L 3.0625 -8.28125 C 3.09375 -7.957031 3.132812 -7.617188 3.1875 -7.265625 C 3.25 -6.921875 3.316406 -6.601562 3.390625 -6.3125 L 2.296875 -5.953125 L 1.515625 -8.265625 L 1.53125 -8.265625 L 1.515625 -8.28125 L 5.5 -9.75 C 5.738281 -9.6875 5.988281 -9.597656 6.25 -9.484375 C 6.519531 -9.378906 6.78125 -9.25 7.03125 -9.09375 C 7.289062 -8.9375 7.523438 -8.75 7.734375 -8.53125 C 7.941406 -8.3125 8.101562 -8.0625 8.21875 -7.78125 L 8.21875 -1.71875 C 8.21875 -1.625 8.222656 -1.503906 8.234375 -1.359375 C 8.242188 -1.210938 8.265625 -1.078125 8.296875 -0.953125 C 8.335938 -0.835938 8.390625 -0.757812 8.453125 -0.71875 Z M 3.59375 -0.8125 L 6.65625 -2.140625 L 6.65625 -4.671875 L 2.9375 -3.375 C 2.851562 -3.289062 2.78125 -3.171875 2.71875 -3.015625 C 2.664062 -2.859375 2.640625 -2.695312 2.640625 -2.53125 C 2.640625 -2.125 2.695312 -1.804688 2.8125 -1.578125 C 2.925781 -1.347656 3.054688 -1.175781 3.203125 -1.0625 C 3.359375 -0.957031 3.488281 -0.875 3.59375 -0.8125 Z M 3.59375 -0.8125 "/></g></g></g><g fill="#46221a" fill-opacity="1"><g transform="translate(266.431613, 203.224361)"><g><path d="M 9.890625 -7.9375 L 9.890625 -0.953125 L 11.21875 -0.484375 L 11.046875 0 L 8.625 0 L 7.15625 0.15625 L 7.265625 -0.5 L 8.34375 -0.625 L 8.34375 -7.0625 C 8.34375 -7.25 8.332031 -7.394531 8.3125 -7.5 C 8.289062 -7.613281 8.265625 -7.722656 8.234375 -7.828125 L 6.890625 -8.734375 L 3.90625 -7.3125 L 3.90625 -0.875 L 5.171875 -0.46875 L 5.015625 0 L 2.640625 0 L 1.03125 0.1875 L 1.140625 -0.484375 L 2.359375 -0.625 L 2.359375 -8.546875 L 1.0625 -8.296875 L 0.9375 -8.6875 L 3.390625 -9.75 L 3.90625 -9.484375 L 3.90625 -7.875 L 7.453125 -9.75 C 7.648438 -9.738281 7.878906 -9.671875 8.140625 -9.546875 C 8.410156 -9.429688 8.671875 -9.28125 8.921875 -9.09375 C 9.179688 -8.914062 9.398438 -8.722656 9.578125 -8.515625 C 9.753906 -8.316406 9.859375 -8.125 9.890625 -7.9375 Z M 9.890625 -7.9375 "/></g></g></g><g fill="#46221a" fill-opacity="1"><g transform="translate(278.428987, 203.224361)"><g><path d="M 2.546875 -1.875 L 9.5625 -0.421875 C 9.625 -0.328125 9.679688 -0.226562 9.734375 -0.125 C 9.796875 -0.03125 9.828125 0.0625 9.828125 0.15625 C 9.828125 0.789062 9.707031 1.394531 9.46875 1.96875 C 9.238281 2.539062 8.890625 3.046875 8.421875 3.484375 C 7.953125 3.929688 7.375 4.28125 6.6875 4.53125 C 6.007812 4.789062 5.21875 4.921875 4.3125 4.921875 C 3.90625 4.910156 3.488281 4.828125 3.0625 4.671875 C 2.644531 4.515625 2.257812 4.304688 1.90625 4.046875 C 1.5625 3.785156 1.28125 3.484375 1.0625 3.140625 C 0.84375 2.796875 0.734375 2.425781 0.734375 2.03125 C 0.734375 1.976562 0.734375 1.925781 0.734375 1.875 C 0.742188 1.820312 0.75 1.769531 0.75 1.71875 L 2.734375 -0.515625 C 2.335938 -0.640625 2.015625 -0.816406 1.765625 -1.046875 C 1.515625 -1.273438 1.378906 -1.59375 1.359375 -2 L 3.53125 -2.734375 C 2.757812 -2.984375 2.160156 -3.363281 1.734375 -3.875 C 1.316406 -4.394531 1.109375 -5.019531 1.109375 -5.75 C 1.109375 -6.34375 1.238281 -6.878906 1.5 -7.359375 C 1.757812 -7.835938 2.113281 -8.25 2.5625 -8.59375 C 3.007812 -8.9375 3.519531 -9.203125 4.09375 -9.390625 C 4.664062 -9.585938 5.273438 -9.695312 5.921875 -9.71875 L 5.96875 -9.71875 C 6.351562 -9.625 6.691406 -9.507812 6.984375 -9.375 C 7.273438 -9.238281 7.53125 -9.082031 7.75 -8.90625 C 7.9375 -8.976562 8.109375 -9.070312 8.265625 -9.1875 C 8.429688 -9.3125 8.554688 -9.457031 8.640625 -9.625 C 8.648438 -9.644531 8.660156 -9.703125 8.671875 -9.796875 C 8.691406 -9.890625 8.695312 -9.992188 8.6875 -10.109375 C 8.6875 -10.234375 8.664062 -10.34375 8.625 -10.4375 L 8.734375 -10.65625 L 9.5625 -10.71875 C 9.65625 -10.570312 9.707031 -10.398438 9.71875 -10.203125 C 9.738281 -10.003906 9.6875 -9.789062 9.5625 -9.5625 C 9.394531 -9.300781 9.1875 -9.085938 8.9375 -8.921875 C 8.695312 -8.753906 8.429688 -8.628906 8.140625 -8.546875 C 8.398438 -8.265625 8.582031 -7.953125 8.6875 -7.609375 C 8.800781 -7.265625 8.859375 -6.90625 8.859375 -6.53125 C 8.859375 -5.863281 8.6875 -5.285156 8.34375 -4.796875 C 8.007812 -4.304688 7.53125 -3.882812 6.90625 -3.53125 C 6.28125 -3.175781 5.535156 -2.863281 4.671875 -2.59375 Z M 2.640625 -6.203125 C 2.640625 -5.773438 2.6875 -5.410156 2.78125 -5.109375 C 2.882812 -4.816406 3.023438 -4.566406 3.203125 -4.359375 C 3.378906 -4.160156 3.582031 -3.972656 3.8125 -3.796875 L 5.03125 -3.28125 C 5.445312 -3.476562 5.828125 -3.703125 6.171875 -3.953125 C 6.515625 -4.210938 6.785156 -4.515625 6.984375 -4.859375 C 7.191406 -5.210938 7.296875 -5.617188 7.296875 -6.078125 C 7.296875 -6.484375 7.25 -6.828125 7.15625 -7.109375 C 7.0625 -7.390625 6.925781 -7.628906 6.75 -7.828125 C 6.582031 -8.035156 6.382812 -8.222656 6.15625 -8.390625 L 4.9375 -8.90625 C 4.238281 -8.71875 3.679688 -8.394531 3.265625 -7.9375 C 2.847656 -7.476562 2.640625 -6.898438 2.640625 -6.203125 Z M 6.1875 4.109375 C 6.40625 4.085938 6.648438 3.992188 6.921875 3.828125 C 7.203125 3.671875 7.460938 3.445312 7.703125 3.15625 C 7.953125 2.875 8.15625 2.539062 8.3125 2.15625 C 8.46875 1.769531 8.546875 1.347656 8.546875 0.890625 L 3.265625 -0.375 L 1.859375 1.640625 C 1.890625 2.015625 2.035156 2.347656 2.296875 2.640625 C 2.566406 2.941406 2.910156 3.195312 3.328125 3.40625 C 3.753906 3.625 4.210938 3.789062 4.703125 3.90625 C 5.203125 4.03125 5.695312 4.097656 6.1875 4.109375 Z M 6.1875 4.109375 "/></g></g></g><path stroke-linecap="round" transform="matrix(0.749111, 0, 0, 0.749111, 46.708411, 195.55696)" fill="none" stroke-linejoin="miter" d="M 3.997689 4.001712 L 34.221 4.001712 " stroke="#8b1c15" stroke-width="8" stroke-opacity="1" stroke-miterlimit="4"/><path stroke-linecap="round" transform="matrix(0.749111, 0, 0, 0.749111, 299.760353, 195.55696)" fill="none" stroke-linejoin="miter" d="M 4.001353 4.001712 L 34.21945 4.001712 " stroke="#8b1c15" stroke-width="8" stroke-opacity="1" stroke-miterlimit="4"/></svg>