<?xml version="1.0" encoding="UTF-8" standalone="no"?>
<!-- Created with Inkscape (http://www.inkscape.org/) -->

<svg
   width="120.56678mm"
   height="59.909805mm"
   viewBox="0 0 120.56678 59.909805"
   version="1.1"
   id="svg1"
   xml:space="preserve"
   xmlns:inkscape="http://www.inkscape.org/namespaces/inkscape"
   xmlns:sodipodi="http://sodipodi.sourceforge.net/DTD/sodipodi-0.dtd"
   xmlns="http://www.w3.org/2000/svg"
   xmlns:svg="http://www.w3.org/2000/svg"><sodipodi:namedview
     id="namedview1"
     pagecolor="#ffffff"
     bordercolor="#000000"
     borderopacity="0.25"
     inkscape:showpageshadow="2"
     inkscape:pageopacity="0.0"
     inkscape:pagecheckerboard="0"
     inkscape:deskcolor="#d1d1d1"
     inkscape:document-units="mm"
     inkscape:export-bgcolor="#ffffff00"><inkscape:page
       x="-5.6252437e-14"
       y="0"
       width="120.56679"
       height="59.909805"
       id="page2"
       margin="0"
       bleed="0" /></sodipodi:namedview><defs
     id="defs1"><clipPath
       id="72dc6857ba"><path
         d="m 66,57 h 37 v 59.11328 H 66 Z m 0,0"
         clip-rule="nonzero"
         id="path1" /></clipPath><clipPath
       id="52135448fb"><path
         d="m 272,57 h 38 v 59.11328 h -38 z m 0,0"
         clip-rule="nonzero"
         id="path2-3" /></clipPath></defs><g
     inkscape:label="Layer 1"
     inkscape:groupmode="layer"
     id="layer1"
     transform="translate(-53.221871,-33.163341)"><path
       fill="#8b1c15"
       d="m 82.757861,58.046579 4.692219,0.804774 -1.207159,-2.665126 c 0,0 -7.958172,-4.557172 -9.902584,-8.896615 0,0 -0.603581,4.205773 1.039041,10.539237 0.603581,0.402387 1.105186,0.73725 1.457964,0.938444 -0.334863,-1.408355 -0.587044,-2.965538 -0.38585,-3.988043 0,0 2.379871,9.752376 9.115721,17.007748 h 3.819924 c 0,0.01655 -6.082662,-4.60816 -8.629276,-13.740419 z m 0,0"
       fill-opacity="1"
       fill-rule="nonzero"
       id="path3"
       style="fill:#800000;fill-opacity:1;stroke-width:0.352778" /><g
       clip-path="url(#72dc6857ba)"
       id="g4"
       style="fill:#800000;fill-opacity:1"
       transform="matrix(0.35277778,0,0,0.35277778,47.017062,32.007169)"><path
         fill="#8b1c15"
         d="m 81.742188,83.121094 11.304687,1.949218 -2.894531,-6.414062 c 0,0 -19.144532,-10.972656 -23.796875,-21.421875 0,0 -2.140625,14.582031 5.554687,35.148437 h 2.660156 c 0,0 -4.273437,-11.730468 -3.179687,-17.097656 0,0 5.699219,23.417969 21.941406,40.894534 H 102.5 c -0.0469,0.0508 -14.675781,-11.11328 -20.757812,-33.058596 z m 0,0"
         fill-opacity="1"
         fill-rule="nonzero"
         id="path4"
         style="fill:#800000;fill-opacity:1" /></g><path
       fill="#8b1c15"
       d="m 140.81874,54.208743 c 0.70418,-0.451997 1.52549,-1.021127 2.34543,-1.641244 1.99402,-5.932454 2.06154,-10.959538 2.06154,-10.959538 -7.52409,7.156153 -20.30815,12.852963 -23.97786,14.394987 -0.53606,-0.570507 -1.0735,-1.123101 -1.64263,-1.675694 -2.06154,-1.977485 -4.05556,-4.022494 -5.66373,-5.780871 0.87092,-1.156173 1.64262,-2.145605 2.22829,-2.831868 0.45337,-0.537435 1.15617,-0.771701 1.82727,-0.587044 0.78686,0.201193 1.87689,0.201193 3.11575,-0.636654 2.53146,-1.743218 6.7703,-7.926476 4.13962,-10.288433 -2.78226,-2.195215 -8.1442,3.049599 -9.41751,5.848394 -0.62011,1.357368 -0.43546,2.429481 -0.1006,3.183268 0.30179,0.620117 0.18466,1.357368 -0.2508,1.893425 -0.5705,0.669726 -1.35737,1.558561 -2.29581,2.563151 -0.80477,-0.887457 -1.49104,-1.675695 -1.99402,-2.294434 -0.21773,-0.268717 -0.31833,-0.620117 -0.2508,-0.972895 l 0.30041,-1.74184 c 0.0841,-0.469911 -0.0165,-0.921908 -0.28388,-1.291222 -0.51952,-0.719336 -1.50895,-2.010557 -2.73127,-3.300401 -1.86035,-1.926498 -5.26135,-4.926487 -5.26135,-4.926487 l -0.20119,0.168121 5.86493,7.456564 c 0.0661,0.08268 0.0496,0.234267 -0.051,0.318327 l -0.0165,0.01653 c -0.10059,0.08406 -0.25218,0.08406 -0.31832,-0.01653 l -6.11574,-7.255371 -0.21773,0.183279 5.86355,7.491016 c 0.0841,0.100597 0.051,0.234266 -0.0496,0.318327 -0.1006,0.08268 -0.25081,0.08268 -0.31833,-0.01654 l -6.15017,-7.256751 -0.21774,0.184657 5.8484,7.456565 c 0.0675,0.08406 0.0496,0.234266 -0.051,0.318327 l -0.0165,0.01653 c -0.1006,0.08406 -0.25081,0.08406 -0.31833,-0.01653 l -6.09919,-7.255371 -0.20119,0.16812 c 0,0 2.2462,3.937056 3.75378,6.148807 1.00596,1.457964 2.07808,2.698198 2.66374,3.351389 0.30179,0.334863 0.73725,0.51952 1.20716,0.536056 l 1.75976,0.05099 c 0.3514,0.01653 0.66972,0.166743 0.88746,0.43546 0.51952,0.636654 1.18924,1.507574 1.92649,2.530078 -1.60817,1.675694 -3.5512,3.602192 -5.54522,5.462543 -0.70418,0.669727 -1.40836,1.357368 -2.06155,2.061546 -2.949,-1.256771 -15.901181,-7.004568 -23.693987,-14.42806 0,0 0.06752,5.04362 2.061547,10.959538 0.837847,0.620117 1.642621,1.189247 2.345418,1.641243 -0.737249,-2.261361 -1.156173,-4.489649 -1.03904,-6.400987 0,0 5.361947,14.142806 13.65636,24.281032 h 3.753772 c 0,0 -6.300387,-5.831857 -11.276483,-17.779448 l 9.282465,4.306369 4.139628,-1.74184 c -2.84841,3.166732 -4.977475,6.232867 -5.412937,6.902593 -0.04961,0.06752 -0.03305,0.184657 0.05099,0.252181 l 1.792827,1.507574 c 0.0827,0.06752 0.18328,0.06752 0.2508,0.01654 0.75379,-0.720712 5.09461,-4.992631 8.22689,-9.818521 1.42489,-2.178678 2.89939,-4.322906 4.24022,-6.133648 1.34084,1.893425 2.88148,4.156164 4.32291,6.468512 3.06613,4.893413 7.35597,9.232855 8.09322,9.970106 0.0675,0.06752 0.16812,0.06752 0.2508,0 l 1.82728,-1.491038 c 0.0841,-0.06752 0.1006,-0.16812 0.0496,-0.25218 -0.452,-0.686263 -2.56315,-3.869532 -5.42809,-7.120324 l 3.76893,1.339453 9.65178,-4.189236 c -4.9761,11.947592 -11.27648,17.77945 -11.27648,17.77945 h 3.75377 c 8.29441,-10.138228 13.65636,-24.281034 13.65636,-24.281034 0.1502,1.927875 -0.26872,4.139627 -1.02251,6.400988 z M 122.95661,34.670917 c 0.75379,-0.183279 1.35737,-0.100597 1.84382,0.268717 0.43546,0.402387 0.63665,0.988054 0.58567,1.759755 -0.0841,1.22232 -0.77033,2.696821 -1.65916,4.037652 -0.0165,0.01654 -0.0165,0.01654 -0.0165,0.03307 -0.11713,0.135048 -0.31833,0.168121 -0.46853,0.03445 -0.13505,-0.100596 -0.15159,-0.285254 -0.0675,-0.43546 0.72071,-1.190625 1.25677,-2.447396 1.3243,-3.51951 0.0496,-0.786859 -0.13505,-1.357367 -0.58705,-1.759754 -0.31832,-0.250803 -0.70417,-0.367937 -1.13963,-0.367937 0.051,-0.01654 0.10059,-0.03307 0.18465,-0.05099 z m 0,0"
       fill-opacity="1"
       fill-rule="nonzero"
       id="path5"
       style="fill:#800000;fill-opacity:1;stroke-width:0.352778" /><path
       fill="#8b1c15"
       d="m 147.50499,58.783829 c 0.3514,-0.21773 0.85438,-0.536057 1.45796,-0.938444 1.64124,-6.333463 1.03904,-10.539236 1.03904,-10.539236 -1.92787,4.355979 -9.90396,8.896615 -9.90396,8.896615 l -1.20578,2.665126 4.69084,-0.804775 c -2.54662,9.115723 -8.62928,13.740418 -8.62928,13.740418 h 3.8213 c 6.73585,-7.271907 9.11435,-17.007746 9.11435,-17.007746 0.20119,1.022504 -0.0496,2.581065 -0.38447,3.988042 z m 0,0"
       fill-opacity="1"
       fill-rule="nonzero"
       id="path6"
       style="fill:#800000;fill-opacity:1;stroke-width:0.352778" /><g
       clip-path="url(#52135448fb)"
       id="g7"
       style="fill:#800000;fill-opacity:1"
       transform="matrix(0.35277778,0,0,0.35277778,47.017062,32.007169)"><path
         fill="#8b1c15"
         d="m 308.73828,57.28125 c -4.65625,10.453125 -23.79687,21.421875 -23.79687,21.421875 l -2.89844,6.414063 11.30469,-1.949219 c -6.125,21.945311 -20.70704,33.109371 -20.70704,33.109371 h 9.16797 C 298.00391,98.796875 303.75,75.378906 303.75,75.378906 c 1.04687,5.414063 -3.17969,17.101563 -3.17969,17.101563 h 2.66016 C 310.875,71.863281 308.73828,57.28125 308.73828,57.28125 Z m 0,0"
         fill-opacity="1"
         fill-rule="nonzero"
         id="path7"
         style="fill:#800000;fill-opacity:1" /></g><path
       fill="#8b1c15"
       d="m 108.89787,61.884415 v 1.322917 h 3.98804 v -5.111144 h -0.20119 c -2.07808,-0.01653 -3.78685,1.675695 -3.78685,3.788227 z m 0,0"
       fill-opacity="1"
       fill-rule="nonzero"
       id="path8"
       style="fill:#800000;fill-opacity:1;stroke-width:0.352778" /><path
       fill="#8b1c15"
       d="m 113.79128,58.079652 h -0.20119 v 5.111143 h 3.98804 v -1.324294 c 0,-2.094618 -1.69223,-3.786849 -3.78685,-3.786849 z m 0,0"
       fill-opacity="1"
       fill-rule="nonzero"
       id="path9"
       style="fill:#800000;fill-opacity:1;stroke-width:0.352778" /><path
       fill="#8b1c15"
       d="m 108.89787,63.878437 h 3.98804 v 5.109767 h -3.98804 z m 0,0"
       fill-opacity="1"
       fill-rule="nonzero"
       id="path10"
       style="fill:#800000;fill-opacity:1;stroke-width:0.352778" /><path
       fill="#8b1c15"
       d="m 113.59009,63.878437 h 3.98804 v 5.109767 h -3.98804 z m 0,0"
       fill-opacity="1"
       fill-rule="nonzero"
       id="path11"
       style="fill:#800000;fill-opacity:1;stroke-width:0.352778" /><g
       fill="#8b1c15"
       fill-opacity="1"
       id="g14"
       style="fill:#800000;fill-opacity:1;stroke:#800000;stroke-width:2.41795;stroke-dasharray:none;stroke-opacity:1"
       transform="matrix(0.35277778,0,0,0.35277778,47.017062,32.007169)"><g
         transform="translate(15.519399,171.09902)"
         id="g13"
         style="fill:#800000;fill-opacity:1;stroke:#800000;stroke-width:2.41795;stroke-dasharray:none;stroke-opacity:1"><g
           id="g12"
           style="fill:#800000;fill-opacity:1;stroke:#800000;stroke-width:2.41795;stroke-dasharray:none;stroke-opacity:1"><path
             d="m 25.578125,-22.0625 c 2.46875,0.355469 4.492187,1.027344 6.078125,2.015625 1.582031,0.992187 2.742188,2.1875 3.484375,3.59375 0.738281,1.40625 1.109375,2.929687 1.109375,4.5625 0,1.792969 -0.445312,3.417969 -1.328125,4.875 -0.886719,1.460937 -2.085937,2.714844 -3.59375,3.765625 -1.5,1.042969 -3.1875,1.84375 -5.0625,2.40625 C 24.390625,-0.28125 22.46875,0 20.5,0 H 8.78125 L 3.6875,0.578125 4.046875,-1.484375 7.90625,-1.875 V -38.828125 L 3.625,-40.296875 4.140625,-41.71875 H 7.90625 l 17.75,-0.671875 c 1.726562,0.605469 3.21875,1.339844 4.46875,2.203125 1.25,0.867188 2.210938,1.898438 2.890625,3.09375 0.675781,1.199219 1.015625,2.625 1.015625,4.28125 0,0.980469 -0.246094,1.984375 -0.734375,3.015625 -0.480469,1.03125 -1.132813,2.03125 -1.953125,3 -0.8125,0.960937 -1.726562,1.84375 -2.734375,2.65625 -1,0.804687 -2.011719,1.496094 -3.03125,2.078125 z m 1.375,-15.890625 -5.453125,-2.3125 -8.375,0.59375 v 16.3125 l 8.125,1.046875 h 0.21875 c 0.695312,-0.21875 1.460938,-0.632812 2.296875,-1.25 0.84375,-0.613281 1.640625,-1.347656 2.390625,-2.203125 0.757812,-0.851563 1.382812,-1.785156 1.875,-2.796875 0.488281,-1.019531 0.734375,-2.054688 0.734375,-3.109375 0,-1.320313 -0.152344,-2.53125 -0.453125,-3.625 -0.304688,-1.101563 -0.757812,-1.988281 -1.359375,-2.65625 z M 19.375,-1.5625 c 4.09375,-0.1875 7.054688,-1.125 8.890625,-2.8125 1.84375,-1.6875 2.765625,-3.941406 2.765625,-6.765625 0,-1.914063 -0.445312,-3.546875 -1.328125,-4.890625 -0.886719,-1.34375 -2.089844,-2.390625 -3.609375,-3.140625 -1.523438,-0.757813 -3.257812,-1.191406 -5.203125,-1.296875 L 13.125,-20.5625 v 17.609375 z m 0,0"
             id="path12"
             style="fill:#800000;fill-opacity:1;stroke:#800000;stroke-width:2.41795;stroke-dasharray:none;stroke-opacity:1" /></g></g></g><g
       fill="#8b1c15"
       fill-opacity="1"
       id="g17"
       style="fill:#800000;fill-opacity:1;stroke:#800000;stroke-width:2.41795;stroke-dasharray:none;stroke-opacity:1"
       transform="matrix(0.35277778,0,0,0.35277778,47.017062,32.007169)"><g
         transform="translate(54.423971,171.09902)"
         id="g16"
         style="fill:#800000;fill-opacity:1;stroke:#800000;stroke-width:2.41795;stroke-dasharray:none;stroke-opacity:1"><g
           id="g15"
           style="fill:#800000;fill-opacity:1;stroke:#800000;stroke-width:2.41795;stroke-dasharray:none;stroke-opacity:1"><path
             d="M 30.640625,-41.71875 H 35.6875 l 5.09375,-0.609375 -0.359375,2.0625 -3.828125,0.421875 v 31.609375 c -0.992188,1.84375 -2.265625,3.433594 -3.828125,4.765625 -1.554687,1.324219 -3.335937,2.34375 -5.34375,3.0625 -2,0.71875 -4.167969,1.078125 -6.5,1.078125 C 19.835938,0.671875 18.632812,0.46875 17.3125,0.0625 16,-0.34375 14.691406,-0.945312 13.390625,-1.75 12.085938,-2.550781 10.894531,-3.539062 9.8125,-4.71875 8.726562,-5.894531 7.859375,-7.253906 7.203125,-8.796875 6.546875,-10.335938 6.21875,-12.054688 6.21875,-13.953125 v -24.875 l -4.25,-1.46875 0.5,-1.421875 h 8.09375 l 5.109375,-0.609375 -0.390625,2.0625 -3.84375,0.421875 v 24.390625 c 0,3.5 0.914062,6.390625 2.75,8.671875 1.832031,2.273438 4.710938,3.9375 8.640625,5 1.863281,-0.300781 3.4375,-0.710938 4.71875,-1.234375 1.28125,-0.519531 2.351563,-1.109375 3.21875,-1.765625 C 31.628906,-5.4375 32.34375,-6.125 32.90625,-6.84375 33.46875,-7.570312 33.960938,-8.289062 34.390625,-9 v -29.828125 l -4.296875,-1.46875 z m 0,0"
             id="path14"
             style="fill:#800000;fill-opacity:1;stroke:#800000;stroke-width:2.41795;stroke-dasharray:none;stroke-opacity:1" /></g></g></g><g
       fill="#8b1c15"
       fill-opacity="1"
       id="g20"
       style="fill:#800000;fill-opacity:1;stroke:#800000;stroke-width:2.41795;stroke-dasharray:none;stroke-opacity:1"
       transform="matrix(0.35277778,0,0,0.35277778,47.017062,32.007169)"><g
         transform="translate(96.316559,171.09902)"
         id="g19"
         style="fill:#800000;fill-opacity:1;stroke:#800000;stroke-width:2.41795;stroke-dasharray:none;stroke-opacity:1"><g
           id="g18"
           style="fill:#800000;fill-opacity:1;stroke:#800000;stroke-width:2.41795;stroke-dasharray:none;stroke-opacity:1"><path
             d="m 38.46875,-41.71875 5.125,-0.609375 -0.390625,2.0625 -3.84375,0.421875 V 0 l -4.15625,0.671875 -25.125,-35.9375 0.453125,4.625 v 27.75 l 4.296875,1.4375 L 14.28125,0 h -5.5 L 3.6875,0.578125 4.046875,-1.484375 7.90625,-1.875 V -38.828125 L 3.625,-40.296875 4.140625,-41.71875 H 7.875 L 11.5,-42.234375 37.140625,-5.5 l -0.4375,-5.671875 v -27.65625 l -4.28125,-1.46875 0.546875,-1.421875 z m 0,0"
             id="path17"
             style="fill:#800000;fill-opacity:1;stroke:#800000;stroke-width:2.41795;stroke-dasharray:none;stroke-opacity:1" /></g></g></g><g
       fill="#8b1c15"
       fill-opacity="1"
       id="g23"
       style="fill:#800000;fill-opacity:1;stroke:#800000;stroke-width:2.41795;stroke-dasharray:none;stroke-opacity:1"
       transform="matrix(0.35277778,0,0,0.35277778,47.017062,32.007169)"><g
         transform="translate(142.58553,171.09902)"
         id="g22"
         style="fill:#800000;fill-opacity:1;stroke:#800000;stroke-width:2.41795;stroke-dasharray:none;stroke-opacity:1"><g
           id="g21"
           style="fill:#800000;fill-opacity:1;stroke:#800000;stroke-width:2.41795;stroke-dasharray:none;stroke-opacity:1"><path
             d="m 34.078125,-19.5 v 0.03125 h 2.65625 v 13.25 L 23.84375,0.15625 16,0 c -3.105469,-0.96875 -5.640625,-2.363281 -7.609375,-4.1875 -1.96875,-1.832031 -3.429687,-4.050781 -4.375,-6.65625 -0.949219,-2.613281 -1.421875,-5.5625 -1.421875,-8.84375 0,-2.789062 0.4375,-5.359375 1.3125,-7.703125 0.875,-2.351563 2.070312,-4.445313 3.59375,-6.28125 1.519531,-1.84375 3.269531,-3.40625 5.25,-4.6875 1.988281,-1.289063 4.097656,-2.28125 6.328125,-2.96875 2.238281,-0.6875 4.492187,-1.039063 6.765625,-1.0625 l 10.109375,6.1875 -3.5625,3.78125 L 21.5625,-39.875 c -1.230469,0.375 -2.492188,0.886719 -3.78125,1.53125 -1.292969,0.648438 -2.53125,1.460938 -3.71875,2.4375 -1.1875,0.96875 -2.25,2.167969 -3.1875,3.59375 -0.929688,1.417969 -1.671875,3.089844 -2.234375,5.015625 -0.554687,1.917969 -0.828125,4.152344 -0.828125,6.703125 0,2.21875 0.21875,4.246094 0.65625,6.078125 0.4375,1.824219 1.1875,3.554687 2.25,5.1875 1.0625,1.625 2.53125,3.257813 4.40625,4.890625 l 4.5,1.96875 12.53125,-3.453125 v -10.625 l -7.1875,-1.5 L 25.171875,-19.5 Z m 0,0"
             id="path20"
             style="fill:#800000;fill-opacity:1;stroke:#800000;stroke-width:2.41795;stroke-dasharray:none;stroke-opacity:1" /></g></g></g><g
       fill="#8b1c15"
       fill-opacity="1"
       id="g26"
       style="fill:#800000;fill-opacity:1;stroke:#800000;stroke-width:2.41795;stroke-dasharray:none;stroke-opacity:1"
       transform="matrix(0.35277778,0,0,0.35277778,47.017062,32.007169)"><g
         transform="translate(182.3352,171.09902)"
         id="g25"
         style="fill:#800000;fill-opacity:1;stroke:#800000;stroke-width:2.41795;stroke-dasharray:none;stroke-opacity:1"><g
           id="g24"
           style="fill:#800000;fill-opacity:1;stroke:#800000;stroke-width:2.41795;stroke-dasharray:none;stroke-opacity:1"><path
             d="m 23,-42.390625 15.3125,39.5 3.828125,1.4375 L 41.6875,0 H 34 l -5.3125,0.578125 0.390625,-2.0625 L 33.0625,-1.875 28.28125,-14.0625 H 11.46875 L 7.0625,-2.84375 12.203125,-1.421875 11.5625,0 H 4.890625 L 0.8125,0.578125 l 0.296875,-2.0625 3.0625,-0.390625 14.125,-35.265625 -1.875,-3.375 z m -3.40625,7.609375 -7.28125,18.515625 h 15.125 l -5.671875,-14.5625 z m 0,0"
             id="path23"
             style="fill:#800000;fill-opacity:1;stroke:#800000;stroke-width:2.41795;stroke-dasharray:none;stroke-opacity:1" /></g></g></g><g
       fill="#8b1c15"
       fill-opacity="1"
       id="g32"
       style="fill:#800000;fill-opacity:1;stroke:#800000;stroke-width:2.41795;stroke-dasharray:none;stroke-opacity:1"
       transform="matrix(0.35277778,0,0,0.35277778,47.017062,32.007169)"><g
         transform="translate(242.42752,171.09902)"
         id="g31"
         style="fill:#800000;fill-opacity:1;stroke:#800000;stroke-width:2.41795;stroke-dasharray:none;stroke-opacity:1"><g
           id="g30"
           style="fill:#800000;fill-opacity:1;stroke:#800000;stroke-width:2.41795;stroke-dasharray:none;stroke-opacity:1"><path
             d="m 23,-42.390625 15.3125,39.5 3.828125,1.4375 L 41.6875,0 H 34 l -5.3125,0.578125 0.390625,-2.0625 L 33.0625,-1.875 28.28125,-14.0625 H 11.46875 L 7.0625,-2.84375 12.203125,-1.421875 11.5625,0 H 4.890625 L 0.8125,0.578125 l 0.296875,-2.0625 3.0625,-0.390625 14.125,-35.265625 -1.875,-3.375 z m -3.40625,7.609375 -7.28125,18.515625 h 15.125 l -5.671875,-14.5625 z m 0,0"
             id="path29"
             style="fill:#800000;fill-opacity:1;stroke:#800000;stroke-width:2.41795;stroke-dasharray:none;stroke-opacity:1" /></g></g></g><g
       fill="#8b1c15"
       fill-opacity="1"
       id="g35"
       style="fill:#800000;fill-opacity:1;stroke:#800000;stroke-width:2.41795;stroke-dasharray:none;stroke-opacity:1"
       transform="matrix(0.35277778,0,0,0.35277778,47.017062,32.007169)"><g
         transform="translate(285.37648,171.09902)"
         id="g34"
         style="fill:#800000;fill-opacity:1;stroke:#800000;stroke-width:2.41795;stroke-dasharray:none;stroke-opacity:1"><g
           id="g33"
           style="fill:#800000;fill-opacity:1;stroke:#800000;stroke-width:2.41795;stroke-dasharray:none;stroke-opacity:1"><path
             d="M 35.203125,-6.40625 23.8125,0.125 16,0 C 12.914062,-0.945312 10.382812,-2.34375 8.40625,-4.1875 6.425781,-6.039062 4.960938,-8.234375 4.015625,-10.765625 c -0.949219,-2.539063 -1.421875,-5.269531 -1.421875,-8.1875 0,-2.9375 0.421875,-5.628906 1.265625,-8.078125 0.84375,-2.445312 2.007813,-4.613281 3.5,-6.5 1.488281,-1.894531 3.210937,-3.492188 5.171875,-4.796875 1.96875,-1.3125 4.082031,-2.3125 6.34375,-3 2.269531,-0.6875 4.59375,-1.039063 6.96875,-1.0625 l 9.109375,5.5625 -3.5625,3.734375 -9.8125,-6.8125 c -1.21875,0.367188 -2.476563,0.867188 -3.765625,1.5 -1.292969,0.625 -2.53125,1.433594 -3.71875,2.421875 -1.1875,0.992187 -2.25,2.183594 -3.1875,3.578125 -0.929688,1.398438 -1.671875,3.046875 -2.234375,4.953125 -0.554687,1.898437 -0.828125,4.085937 -0.828125,6.5625 0,2.054687 0.207031,4.058594 0.625,6.015625 0.414062,1.949219 1.148438,3.804688 2.203125,5.5625 1.050781,1.761719 2.535156,3.375 4.453125,4.84375 L 19.6875,-2.5 34.46875,-7.609375 Z m 0,0"
             id="path32"
             style="fill:#800000;fill-opacity:1;stroke:#800000;stroke-width:2.41795;stroke-dasharray:none;stroke-opacity:1" /></g></g></g><g
       fill="#8b1c15"
       fill-opacity="1"
       id="g38"
       style="fill:#800000;fill-opacity:1;stroke:#800000;stroke-width:2.41795;stroke-dasharray:none;stroke-opacity:1"
       transform="matrix(0.35277778,0,0,0.35277778,47.017062,32.007169)"><g
         transform="translate(322.47013,171.09902)"
         id="g37"
         style="fill:#800000;fill-opacity:1;stroke:#800000;stroke-width:2.41795;stroke-dasharray:none;stroke-opacity:1"><g
           id="g36"
           style="fill:#800000;fill-opacity:1;stroke:#800000;stroke-width:2.41795;stroke-dasharray:none;stroke-opacity:1"><path
             d="M 35.203125,-6.40625 23.8125,0.125 16,0 C 12.914062,-0.945312 10.382812,-2.34375 8.40625,-4.1875 6.425781,-6.039062 4.960938,-8.234375 4.015625,-10.765625 c -0.949219,-2.539063 -1.421875,-5.269531 -1.421875,-8.1875 0,-2.9375 0.421875,-5.628906 1.265625,-8.078125 0.84375,-2.445312 2.007813,-4.613281 3.5,-6.5 1.488281,-1.894531 3.210937,-3.492188 5.171875,-4.796875 1.96875,-1.3125 4.082031,-2.3125 6.34375,-3 2.269531,-0.6875 4.59375,-1.039063 6.96875,-1.0625 l 9.109375,5.5625 -3.5625,3.734375 -9.8125,-6.8125 c -1.21875,0.367188 -2.476563,0.867188 -3.765625,1.5 -1.292969,0.625 -2.53125,1.433594 -3.71875,2.421875 -1.1875,0.992187 -2.25,2.183594 -3.1875,3.578125 -0.929688,1.398438 -1.671875,3.046875 -2.234375,4.953125 -0.554687,1.898437 -0.828125,4.085937 -0.828125,6.5625 0,2.054687 0.207031,4.058594 0.625,6.015625 0.414062,1.949219 1.148438,3.804688 2.203125,5.5625 1.050781,1.761719 2.535156,3.375 4.453125,4.84375 L 19.6875,-2.5 34.46875,-7.609375 Z m 0,0"
             id="path35"
             style="fill:#800000;fill-opacity:1;stroke:#800000;stroke-width:2.41795;stroke-dasharray:none;stroke-opacity:1" /></g></g></g></g></svg>
